<?xml version="1.0" encoding="UTF-8"?>
<svg width="67px" height="79px" viewBox="0 0 67 79" version="1.1" xmlns="http://www.w3.org/2000/svg" xmlns:xlink="http://www.w3.org/1999/xlink">
    <!-- Generator: Sketch 56.3 (81716) - https://sketch.com -->
    <title>bus</title>
    <desc>Created with Sketch.</desc>
    <g id="Page-1" stroke="none" stroke-width="1" fill="none" fill-rule="evenodd">
        <g id="Artboard-Copy-2" transform="translate(-15.000000, -10.000000)" fill="#1EC800" fill-rule="nonzero">
            <path d="M73.5748503,47.4525917 L73.5748503,26.5790139 L23.4251497,26.5790139 L23.4251497,47.4525917 L73.5748503,47.4525917 Z M67.3562874,72.4209861 C69.0948191,72.4209861 70.5658622,71.8217506 71.7694611,70.6232617 C72.9730599,69.4247728 73.5748503,67.9266841 73.5748503,66.1289507 C73.5748503,64.3312173 72.9730599,62.8497741 71.7694611,61.6845765 C70.5658622,60.5193789 69.0948191,59.9367889 67.3562874,59.9367889 C65.6177558,59.9367889 64.1299962,60.5360243 62.8929641,61.7345133 C61.6559319,62.9330022 61.0374251,64.3978 61.0374251,66.1289507 C61.0374251,67.8601014 61.6392155,69.3415446 62.8428144,70.5733249 C64.0464132,71.8051052 65.5508892,72.4209861 67.3562874,72.4209861 Z M29.744012,72.4209861 C31.4825436,72.4209861 32.9535868,71.8217506 34.1571856,70.6232617 C35.3607845,69.4247728 35.9625749,67.9266841 35.9625749,66.1289507 C35.9625749,64.3312173 35.3607845,62.8497741 34.1571856,61.6845765 C32.9535868,60.5193789 31.4825436,59.9367889 29.744012,59.9367889 C28.0054803,59.9367889 26.5177208,60.5360243 25.2806886,61.7345133 C24.0436565,62.9330022 23.4251497,64.3978 23.4251497,66.1289507 C23.4251497,67.8601014 24.0269401,69.3415446 25.2305389,70.5733249 C26.4341378,71.8051052 27.9386137,72.4209861 29.744012,72.4209861 Z M15,68.1264223 L15,26.5790139 C15,21.9182236 16.5379088,18.3228108 19.6137725,15.7926675 C22.2884365,13.5288551 26.3003725,11.9308938 31.6497006,10.9987358 C35.7954299,10.3329086 41.4121402,10 48.5,10 C55.5878598,10 61.2045701,10.3329086 65.3502994,10.9987358 C70.6996275,11.9308938 74.7115635,13.5288551 77.3862275,15.7926675 C80.4620912,18.3228108 82,21.9182236 82,26.5790139 L82,68.1264223 C82,69.9241466 81.5988064,71.6552803 80.7964072,73.3198483 C80.0608746,74.8512508 79.0244578,76.2494669 77.6871257,77.5145386 L77.6871257,84.9051833 C77.6871257,86.0370895 77.2859322,87.0025245 76.4835329,87.8015171 C75.6811337,88.6005097 74.7115825,89 73.5748503,89 L69.4625749,89 C68.3258426,89 67.3228586,88.6005097 66.4535928,87.8015171 C65.584327,87.0025245 65.1497006,86.0370895 65.1497006,84.9051833 L65.1497006,80.6106195 L31.8502994,80.6106195 L31.8502994,84.9051833 C31.8502994,86.0370895 31.4323894,87.0025245 30.5965569,87.8015171 C29.7607244,88.6005097 28.741024,89 27.5374251,89 L23.4251497,89 C22.2884175,89 21.3188663,88.6005097 20.5164671,87.8015171 C19.7140678,87.0025245 19.3128743,86.0370895 19.3128743,84.9051833 L19.3128743,77.5145386 C17.9755422,76.2494669 16.9391254,74.8512508 16.2035928,73.3198483 C15.4011936,71.6552803 15,69.9241466 15,68.1264223 Z" id="bus"></path>
        </g>
    </g>
</svg>