<?xml version="1.0" encoding="UTF-8"?>
<svg width="69px" height="75px" viewBox="0 0 69 75" version="1.1" xmlns="http://www.w3.org/2000/svg" xmlns:xlink="http://www.w3.org/1999/xlink">
    <!-- Generator: Sketch 56.3 (81716) - https://sketch.com -->
    <title>gas</title>
    <desc>Created with Sketch.</desc>
    <g id="Page-1" stroke="none" stroke-width="1" fill="none" fill-rule="evenodd">
        <g id="Artboard-Copy" transform="translate(-15.000000, -15.000000)" fill="#f91" fill-rule="nonzero">
            <path d="M73.5697674,44.1 C74.706401,44.1 75.6758681,43.700004 76.4781977,42.9 C77.2805273,42.099996 77.681686,41.133339 77.681686,40 C77.681686,38.866661 77.2805273,37.9 76.4781977,37.1 C75.6758681,36.299996 74.706401,35.9 73.5697674,35.9 C72.4331339,35.9 71.4636668,36.299996 70.6613372,37.1 C69.8590076,37.9 69.4578488,38.866661 69.4578488,40 C69.4578488,41.133339 69.8590076,42.099996 70.6613372,42.9 C71.4636668,43.700004 72.4331339,44.1 73.5697674,44.1 Z M48.497093,44.1 L48.497093,23.4 L23.4244186,23.4 L23.4244186,44.1 L48.497093,44.1 Z M80.9912791,32.6 C82.9971031,34.466676 84,36.933318 84,40 L84,79.6 C84,81.466676 83.5319814,83.199992 82.5959302,84.8 C81.659879,86.400008 80.3895429,87.666662 78.7848837,88.6 C77.1802245,89.533338 75.4418698,90 73.5697674,90 C71.6976651,90 69.9760253,89.533338 68.4047965,88.6 C66.8335677,87.666662 65.5799465,86.400008 64.6438953,84.8 C63.7078442,83.199992 63.2398256,81.466676 63.2398256,79.6 L63.2398256,58.7 L56.9215116,58.7 L56.9215116,90 L15,90 L15,23.4 C15,21.133322 15.8357475,19.166675 17.5072674,17.5 C19.1787874,15.833325 21.1511514,15 23.4244186,15 L48.497093,15 C50.7703602,15 52.7427242,15.833325 54.4142442,17.5 C56.0857642,19.166675 56.9215116,21.133322 56.9215116,23.4 L56.9215116,52.5 L61.0334302,52.5 C63.3066974,52.5 65.2790614,53.333325 66.9505814,55 C68.6221014,56.666675 69.4578488,58.633322 69.4578488,60.9 L69.4578488,79.6 C69.4578488,80.800006 69.8590076,81.7833295 70.6613372,82.55 C71.4636668,83.3166705 72.4331339,83.7 73.5697674,83.7 C74.706401,83.7 75.6758681,83.3166705 76.4781977,82.55 C77.2805273,81.7833295 77.681686,80.800006 77.681686,79.6 L77.681686,49.6 C76.6119133,50.066669 75.2412874,50.3 73.5697674,50.3 C70.6947531,50.3 68.2543705,49.30001 66.2485465,47.3 C64.2427225,45.29999 63.2398256,42.866681 63.2398256,40 C63.2398256,37.799989 63.8415638,35.8166755 65.0450581,34.05 C66.2485525,32.2833245 67.8531876,31 69.8590116,30.2 L61.0334302,21.4 L65.5465116,17.1 L80.9912791,32.6 Z" id="gas"></path>
        </g>
    </g>
</svg>