<?xml version="1.0" encoding="UTF-8"?>
<svg width="69px" height="80px" viewBox="0 0 69 80" version="1.1" xmlns="http://www.w3.org/2000/svg" xmlns:xlink="http://www.w3.org/1999/xlink">
    <!-- Generator: Sketch 56.3 (81716) - https://sketch.com -->
    <title>metro</title>
    <desc>Created with Sketch.</desc>
    <g id="Page-1" stroke="none" stroke-width="1" fill="none" fill-rule="evenodd">
        <g id="Artboard" transform="translate(-15.000000, -10.000000)" fill="#C80000" fill-rule="nonzero">
            <path d="M63.875,10 C74.9707031,10 84,16.3839286 84,24.2857143 L84,64.2857143 C84,72.0089286 75.4199219,78.2589286 64.6386719,78.5267857 L74.2070312,87.5446429 C75.1503906,88.4375 74.5214844,90 73.21875,90 L25.78125,90 C24.4785156,90 23.8496094,88.4375 24.7929688,87.5446429 L34.3613281,78.5267857 C23.5800781,78.2589286 15,72.0089286 15,64.2857143 L15,24.2857143 C15,16.3839286 24.0292969,10 35.124976,10 L63.875,10 Z M27.9375,68.5714286 C31.890625,68.5714286 35.125,65.3571429 35.125,61.4285714 C35.125,57.5 31.890625,54.2857143 27.9375,54.2857143 C23.984375,54.2857143 20.75,57.5 20.75,61.4285714 C20.75,65.3571429 23.984375,68.5714286 27.9375,68.5714286 Z M46.625,44.2857143 L46.625,21.4285714 L22.1875,21.4285714 L22.1875,44.2857143 L46.625,44.2857143 Z M71.0625,68.5714286 C75.015625,68.5714286 78.25,65.3571429 78.25,61.4285714 C78.25,57.5 75.015625,54.2857143 71.0625,54.2857143 C67.109375,54.2857143 63.875,57.5 63.875,61.4285714 C63.875,65.3571429 67.109375,68.5714286 71.0625,68.5714286 Z M78.25,44.2857143 L78.25,21.4285714 L52.375,21.4285714 L52.375,44.2857143 L78.25,44.2857143 Z" id="metro"></path>
        </g>
    </g>
</svg>