{
    "asset" : {
        "generator" : "Khronos glTF Blender I/O v1.6.16",
        "version" : "2.0"
    },
    "scene" : 0,
    "scenes" : [
        {
            "name" : "Scene",
            "nodes" : [
                0
            ]
        }
    ],
    "nodes" : [
        {
            "mesh" : 0,
            "name" : "Areas:building"
        }
    ],
    "materials" : [
        {
            "doubleSided" : true,
            "name" : "white",
            "pbrMetallicRoughness" : {
                "baseColorFactor" : [
                    0.1302952915430069,
                    0.43783774971961975,
                    1,
                    1
                ],
                "metallicFactor" : 0,
                "roughnessFactor" : 0.5
            }
        }
    ],
    "meshes" : [
        {
            "name" : "Areas:building",
            "primitives" : [
                {
                    "attributes" : {
                        "POSITION" : 0,
                        "NORMAL" : 1
                    },
                    "indices" : 2,
                    "material" : 0
                }
            ]
        }
    ],
    "accessors" : [
        {
            "bufferView" : 0,
            "componentType" : 5126,
            "count" : 165476,
            "max" : [
                4902.13916015625,
                632,
                2450.637451171875
            ],
            "min" : [
                -5084.77783203125,
                0,
                -2633.063232421875
            ],
            "type" : "VEC3"
        },
        {
            "bufferView" : 1,
            "componentType" : 5126,
            "count" : 165476,
            "type" : "VEC3"
        },
        {
            "bufferView" : 2,
            "componentType" : 5125,
            "count" : 266406,
            "type" : "SCALAR"
        }
    ],
    "bufferViews" : [
        {
            "buffer" : 0,
            "byteLength" : 1985712,
            "byteOffset" : 0
        },
        {
            "buffer" : 0,
            "byteLength" : 1985712,
            "byteOffset" : 1985712
        },
        {
            "buffer" : 0,
            "byteLength" : 1065624,
            "byteOffset" : 3971424
        }
    ],
    "buffers" : [
        {
            "byteLength" : 5037048,
            "uri" : "lujiazui.bin"
        }
    ]
}
