<?xml version="1.0" encoding="UTF-8"?>
<svg width="23px" height="18px" viewBox="0 0 23 18" version="1.1" xmlns="http://www.w3.org/2000/svg" xmlns:xlink="http://www.w3.org/1999/xlink">
    <!-- Generator: Sketch 56.3 (81716) - https://sketch.com -->
    <title>IOT</title>
    <desc>Created with Sketch.</desc>
    <g id="Page-1" stroke="none" stroke-width="1" fill="none" fill-rule="evenodd">
        <g id="人员记录" transform="translate(-1157.000000, -1028.000000)" fill="#FFFFFF" fill-rule="nonzero">
            <g id="按钮控制" transform="translate(637.000000, 916.000000)">
                <g id="IOT" transform="translate(501.000000, 90.000000)">
                    <path d="M32.1428571,38.3636364 L40.3571429,38.3636364 L40.3571429,36.7272727 L32.1428571,36.7272727 L32.1428571,38.3636364 Z M27.2142857,31.8181818 L40.3571429,31.8181818 L40.3571429,30.1818182 L27.2142857,30.1818182 L27.2142857,31.8181818 Z M35.4285714,25.2727273 L40.3571429,25.2727273 L40.3571429,23.6363636 L35.4285714,23.6363636 L35.4285714,25.2727273 Z M42,35.9090909 L42,39.1818182 C42,39.6292614 41.6277902,40 41.1785714,40 L19.8214286,40 C19.3722098,40 19,39.6292614 19,39.1818182 L19,35.9090909 C19,35.4616477 19.3722098,35.0909091 19.8214286,35.0909091 L41.1785714,35.0909091 C41.6277902,35.0909091 42,35.4616477 42,35.9090909 Z M42,29.3636364 L42,32.6363636 C42,33.0838068 41.6277902,33.4545455 41.1785714,33.4545455 L19.8214286,33.4545455 C19.3722098,33.4545455 19,33.0838068 19,32.6363636 L19,29.3636364 C19,28.9161932 19.3722098,28.5454545 19.8214286,28.5454545 L41.1785714,28.5454545 C41.6277902,28.5454545 42,28.9161932 42,29.3636364 Z M42,22.8181818 L42,26.0909091 C42,26.5383523 41.6277902,26.9090909 41.1785714,26.9090909 L19.8214286,26.9090909 C19.3722098,26.9090909 19,26.5383523 19,26.0909091 L19,22.8181818 C19,22.3707386 19.3722098,22 19.8214286,22 L41.1785714,22 C41.6277902,22 42,22.3707386 42,22.8181818 Z"></path>
                </g>
            </g>
        </g>
    </g>
</svg>