<?xml version="1.0" standalone="no"?><!DOCTYPE svg PUBLIC "-//W3C//DTD SVG 1.1//EN" "http://www.w3.org/Graphics/SVG/1.1/DTD/svg11.dtd">
<svg t="1576829632560" class="icon" viewBox="0 0 1118 1024" version="1.1" 
    xmlns="http://www.w3.org/2000/svg" p-id="2090" 
    xmlns:xlink="http://www.w3.org/1999/xlink" width="218.359375" height="200">
    <defs>
        <style type="text/css"></style>
    </defs>
    <path fill="#fff" d="M944.399989 588.230337a35.510434 35.510434 0 0 0 35.510434-35.510434 416.537389 416.537389 0 1 0-832.897227 0 35.510434 35.510434 0 1 0 71.020868 0 345.516522 345.516522 0 1 1 690.855491 0 35.510434 35.510434 0 0 0 35.510434 35.510434z" p-id="2091"></path>
    <path fill="#fff" d="M559.289334 0a559.466886 559.466886 0 0 0-330.247035 1010.8045 35.510434 35.510434 0 0 0 49.714607-7.812295 35.510434 35.510434 0 0 0-7.812296-49.537055 488.268466 488.268466 0 1 1 568.166943 5.859221 35.510434 35.510434 0 0 0 40.836998 58.237112A559.466886 559.466886 0 0 0 559.289334 0z" p-id="2092"></path>
    <path fill="#fff" d="M617.881549 443.880423a132.986575 132.986575 0 0 0-156.245909 37.818613l-104.75578-45.630908a35.510434 35.510434 0 1 0-28.230794 64.984094l104.755779 45.630908A132.986575 132.986575 0 1 0 617.881549 443.880423z" p-id="2093"></path>
</svg>