<?xml version="1.0" standalone="no"?><!DOCTYPE svg PUBLIC "-//W3C//DTD SVG 1.1//EN" "http://www.w3.org/Graphics/SVG/1.1/DTD/svg11.dtd">
<svg t="1576830276458" class="icon" viewBox="0 0 1024 1024" version="1.1" 
    xmlns="http://www.w3.org/2000/svg" p-id="3022" 
    xmlns:xlink="http://www.w3.org/1999/xlink" width="200" height="200">
    <defs>
        <style type="text/css"></style>
    </defs>
    <path fill="#fff" d="M598.528 134.144h-5.12A76.288 76.288 0 0 0 517.12 204.8c-2.56-39.424-48.64-58.368-48.64-58.368A182.272 182.272 0 0 0 409.6 133.632H289.792a30.72 30.72 0 0 0-30.72 30.72v207.872a30.72 30.72 0 0 0 30.72 30.72h56.32a30.72 30.72 0 0 1 30.72 30.72v358.4a30.72 30.72 0 0 0 30.72 30.72h232.448a30.72 30.72 0 0 0 30.72-30.72v-358.4a30.72 30.72 0 0 1 30.72-30.72h47.616a30.72 30.72 0 0 0 30.72-30.72V164.352a30.72 30.72 0 0 0-30.72-30.72h-150.528" p-id="3023"></path>
    <path fill="#fff" d="M152.576 102.4l81.408 0 0 338.432-81.408 0 0-338.432Z" p-id="3024"></path>
    <path fill="#fff" d="M800.256 102.4l81.408 0 0 338.432-81.408 0 0-338.432Z" p-id="3025"></path>
    <path fill="#fff" d="M313.344 852.992l409.6 0 0 69.12-409.6 0 0-69.12Z" p-id="3026"></path>
    <path fill="#fff" d="M117.76 251.904H102.4c-7.168 0-12.8-13.312-12.8-29.696a51.2 51.2 0 0 0-37.376 51.2 38.4 38.4 0 0 0 12.288 31.744c13.824 9.728 25.088 12.288 25.088 5.632A12.8 12.8 0 0 1 102.4 297.472c7.168 0 12.8 9.216 12.8 19.968s3.072 19.968 6.656 19.968 6.656-13.824 6.656-30.72v-66.56c0-16.896-3.072-30.72-6.656-30.72s-6.656 9.728-6.656 20.992v20.992M938.496 225.792v11.776a12.8 12.8 0 0 1-12.8 11.776c-7.168 0-12.8-9.216-12.8-19.968s-3.072-19.968-6.656-19.968-6.656 13.824-6.656 30.72V307.2c0 16.896 3.072 30.72 6.656 30.72s6.656-9.728 6.656-20.992 5.632-20.992 12.8-20.992 12.8 13.312 12.8 29.696a51.2 51.2 0 0 0 0-98.816" p-id="3027"></path>
</svg>