<?xml version="1.0" encoding="UTF-8"?>
<svg width="34px" height="26px" viewBox="0 0 34 26" version="1.1" xmlns="http://www.w3.org/2000/svg" xmlns:xlink="http://www.w3.org/1999/xlink">
    <!-- Generator: Sketch 56.3 (81716) - https://sketch.com -->
    <title>staff</title>
    <desc>Created with Sketch.</desc>
    <g id="Page-1" stroke="none" stroke-width="1" fill="none" fill-rule="evenodd">
        <g id="人员记录" transform="translate(-724.000000, -70.000000)" fill="#FFFFFF" fill-rule="nonzero">
            <g id="人员监控" transform="translate(691.000000, -11.000000)">
                <path d="M50,97.9778646 C50,95.3541667 49.3691406,92.4427083 46.7460938,92.4427083 C45.9326172,92.9166667 44.8369141,93.7291667 43.625,93.7291667 C42.4130859,93.7291667 41.3173828,92.9166667 40.5039062,92.4427083 C37.8808594,92.4427083 37.25,95.3541667 37.25,97.9778646 C37.25,99.4505208 38.1962891,100.5 39.375,100.5 L47.875,100.5 C49.0537109,100.5 50,99.4505208 50,97.9778646 Z M47.3935547,89.1757812 C47.3935547,87.0598958 45.7001953,85.3333333 43.625,85.3333333 C41.5498047,85.3333333 39.8564453,87.0598958 39.8564453,89.1757812 C39.8564453,91.3085938 41.5498047,93.0182292 43.625,93.0182292 C45.7001953,93.0182292 47.3935547,91.3085938 47.3935547,89.1757812 Z M62.75,97.7916667 L62.75,96.7083333 C62.75,96.4036458 62.5175781,96.1666667 62.21875,96.1666667 L52.65625,96.1666667 C52.3574219,96.1666667 52.125,96.4036458 52.125,96.7083333 L52.125,97.7916667 C52.125,98.0963542 52.3574219,98.3333333 52.65625,98.3333333 L62.21875,98.3333333 C62.5175781,98.3333333 62.75,98.0963542 62.75,97.7916667 Z M62.75,93.390625 L62.75,92.4427083 C62.75,92.1041667 62.484375,91.8333333 62.1523438,91.8333333 L52.7226562,91.8333333 C52.390625,91.8333333 52.125,92.1041667 52.125,92.4427083 L52.125,93.390625 C52.125,93.7291667 52.390625,94 52.7226562,94 L62.1523438,94 C62.484375,94 62.75,93.7291667 62.75,93.390625 Z M62.75,89.125 L62.75,88.0416667 C62.75,87.7369792 62.5175781,87.5 62.21875,87.5 L52.65625,87.5 C52.3574219,87.5 52.125,87.7369792 52.125,88.0416667 L52.125,89.125 C52.125,89.4296875 52.3574219,89.6666667 52.65625,89.6666667 L62.21875,89.6666667 C62.5175781,89.6666667 62.75,89.4296875 62.75,89.125 Z M67,83.7083333 L67,104.291667 C67,105.78125 65.8046875,107 64.34375,107 L58.5,107 L58.5,105.375 C58.5,105.070312 58.2675781,104.833333 57.96875,104.833333 L56.90625,104.833333 C56.6074219,104.833333 56.375,105.070312 56.375,105.375 L56.375,107 L43.625,107 L43.625,105.375 C43.625,105.070312 43.3925781,104.833333 43.09375,104.833333 L42.03125,104.833333 C41.7324219,104.833333 41.5,105.070312 41.5,105.375 L41.5,107 L35.65625,107 C34.1953125,107 33,105.78125 33,104.291667 L33,83.7083333 C33,82.21875 34.1953125,81 35.65625,81 L64.34375,81 C65.8046875,81 67,82.21875 67,83.7083333 Z" id="staff"></path>
            </g>
        </g>
    </g>
</svg>