<?xml version="1.0" encoding="UTF-8"?>
<svg width="11px" height="22px" viewBox="0 0 11 22" version="1.1" xmlns="http://www.w3.org/2000/svg" xmlns:xlink="http://www.w3.org/1999/xlink">
    <!-- Generator: Sketch 58 (84663) - https://sketch.com -->
    <title></title>
    <desc>Created with Sketch.</desc>
    <g id="Page-1" stroke="none" stroke-width="1" fill="none" fill-rule="evenodd">
        <g id="人员记录" transform="translate(-1066.000000, -24.000000)" fill="#FFFFFF" fill-rule="nonzero">
            <g id="配电控制" transform="translate(1021.000000, -63.000000)">
                <path d="M55.8649683,93.0915037 C56.0000131,93.2388253 56.0368435,93.4475309 55.9509059,93.6316829 L49.3214337,107.835941 C49.2232193,108.020093 49.0267905,108.142861 48.8058081,108.142861 C48.7567009,108.142861 48.6953169,108.130584 48.6339329,108.118307 C48.3638433,108.03237 48.2042449,107.774557 48.2656289,107.516744 L50.6841586,97.5970894 L45.6997776,98.8370462 C45.6506704,98.849323 45.6015632,98.849323 45.552456,98.849323 C45.4174112,98.849323 45.2700896,98.8002158 45.1718752,98.7142782 C45.0245536,98.5915102 44.9754464,98.4073582 45.0122768,98.235483 L47.4799137,88.1071227 C47.5412977,87.8738635 47.7622801,87.7142651 48.0200929,87.7142651 L52.0468834,87.7142651 C52.3538034,87.7142651 52.5993394,87.9475243 52.5993394,88.2298907 C52.5993394,88.3035515 52.5747858,88.3772123 52.5379554,88.4508731 L50.4386226,94.1350317 L55.3002355,92.9319053 C55.3493427,92.9196285 55.3984499,92.9073517 55.4475571,92.9073517 C55.6071555,92.9073517 55.7544771,92.9810125 55.8649683,93.0915037 Z" id=""></path>
            </g>
        </g>
    </g>
</svg>