<?xml version="1.0" encoding="UTF-8"?>
<svg width="114px" height="100px" viewBox="0 0 114 100" version="1.1" xmlns="http://www.w3.org/2000/svg" xmlns:xlink="http://www.w3.org/1999/xlink">
    <!-- Generator: Sketch 60 (88103) - https://sketch.com -->
    <title>水箱</title>
    <desc>Created with Sketch.</desc>
    <g id="Page-1" stroke="none" stroke-width="1" fill="none" fill-rule="evenodd">
        <g id="水箱" transform="translate(0.750000, 0.000000)" fill="#000000" fill-rule="nonzero">
            <path d="M45.626,12.032 C48.2769668,12.032 50.426,9.8829668 50.426,7.232 C50.426,3.728 45.97,0.696 45.778,0.56 L45.586,0.432 L45.402,0.56 C45.21,0.696 40.7619926,3.88 40.7619926,7.224 C40.759743,8.50959225 41.2732878,9.7423598 42.1875882,10.6461337 C43.1018886,11.5499076 44.3405201,12.0491432 45.626,12.032 L45.626,12.032 Z M31.786,12.0321079 C33.0590392,12.0321079 34.2799379,11.5262872 35.1801125,10.6261125 C36.0802872,9.72593793 36.586,8.50503915 36.586,7.232 C36.586,3.728 32.13,0.696 31.938,0.56 L31.778,0.4 L31.594,0.528 C31.402,0.664 26.954,3.848 26.954,7.192 C26.9432581,8.4775216 27.4486331,9.71362745 28.3569137,10.6234118 C29.2651942,11.5331962 30.5004624,12.0406153 31.786,12.0321079 L31.786,12.0321079 Z M17.938,12.0320609 C19.2110392,12.0320609 20.4319379,11.5262872 21.3321125,10.6261125 C22.2322872,9.72593793 22.738,8.50503915 22.738,7.232 C22.738,3.728 18.282,0.696 18.09,0.56 L17.938,0.4 L17.754,0.528 C17.562,0.664 13.114,3.848 13.114,7.192 C13.1032823,8.47612645 13.607564,9.71100107 14.5141055,10.6205494 C15.4206471,11.5300976 16.6538451,12.0384656 17.938,12.0320609 L17.938,12.0320609 Z" fill="#fff" id="Shape"></path>
            <path d="M112.426,37.744 L112.426,4.144 C112.426,1.934861 110.635139,0.144 108.426,0.144 L59.178,0.144 C57.7489376,0.14399994 56.4284295,0.90639562 55.7138982,2.14399995 C54.999367,3.38160428 54.999367,4.90639572 55.7138982,6.14400005 C56.4284295,7.38160438 57.7489376,8.14400006 59.178,8.144 L104.386,8.144 L104.386,39.6 L103.586,39.6 C95.738,39.6 95.738,33.32 87.89,33.32 C80.042,33.32 80.042,39.6 72.202,39.6 C64.362,39.6 64.354,33.32 56.514,33.32 C48.674,33.32 48.666,39.6 40.826,39.6 C32.986,39.6 32.978,33.32 25.138,33.32 C17.298,33.32 17.29,39.6 9.45,39.6 C8.998391,39.5994135 8.54711698,39.5753811 8.098,39.528 L8.098,4.096 C8.098,1.886861 6.307139,0.096 4.098,0.096 C1.888861,0.096 0.098,1.886861 0.098,4.096 L0.098,41.76 C0.0893289512,41.9118763 0.0893289512,42.0641237 0.098,42.216 L0.098,93.656 C0.106793695,97.1206992 2.91330078,99.9272063 6.378,99.936 L106.17,99.936 C109.634699,99.9272063 112.441206,97.1206992 112.45,93.656 L112.45,38.304 C112.45,38.112 112.442,37.928 112.426,37.744 L112.426,37.744 Z" fill="#fff" id="Path"></path>
        </g>
    </g>
</svg>