<?xml version="1.0" encoding="UTF-8"?>
<svg width="25px" height="19px" viewBox="0 0 25 19" version="1.1" xmlns="http://www.w3.org/2000/svg" xmlns:xlink="http://www.w3.org/1999/xlink">
    <!-- Generator: Sketch 56.3 (81716) - https://sketch.com -->
    <title>Group</title>
    <desc>Created with Sketch.</desc>
    <g id="Page-1" stroke="none" stroke-width="1" fill="none" fill-rule="evenodd">
        <g id="人员记录" transform="translate(-1169.000000, -26.000000)" fill="#FFFFFF" fill-rule="nonzero">
            <g id="阀门监测" transform="translate(1131.000000, -63.000000)">
                <g id="Group" transform="translate(38.000000, 89.000000)">
                    <path d="M4.97379915e-14,9.68 L4.97379915e-14,15.84 C4.97379915e-14,16.082 0.198,16.28 0.44,16.28 L2.64,16.28 L2.64,15.4 L2.64,10.12 L2.64,9.24 L0.44,9.24 C0.198,9.24 4.97379915e-14,9.438 4.97379915e-14,9.68 Z" id="Path"></path>
                    <path d="M24.2,9.24 L22,9.24 L22,10.12 L22,15.4 L22,16.28 L24.2,16.28 C24.442,16.28 24.64,16.082 24.64,15.84 L24.64,9.68 C24.64,9.438 24.442,9.24 24.2,9.24 Z" id="Path"></path>
                    <path d="M20.24,7.92 C19.514,7.92 18.92,8.514 18.92,9.24 L18.48,9.24 L16.9268,9.24 C16.6144,8.8616 16.2492,8.536 15.84,8.2676 L15.84,7.04 C16.566,7.04 17.16,6.446 17.16,5.72 C17.16,4.994 16.566,4.4 15.84,4.4 L13.64,4.4 L13.64,2.2 L16.94,2.2 C17.5472,2.2 18.04,1.7072 18.04,1.1 C18.04,0.4928 17.5472,-5.32907052e-15 16.94,-5.32907052e-15 L7.7,-5.32907052e-15 C7.0928,-5.32907052e-15 6.6,0.4928 6.6,1.1 C6.6,1.7072 7.0928,2.2 7.7,2.2 L11,2.2 L11,4.4 L8.8,4.4 C8.074,4.4 7.48,4.994 7.48,5.72 C7.48,6.446 8.074,7.04 8.8,7.04 L8.8,8.2676 C8.3908,8.536 8.0256,8.8616 7.7132,9.24 L6.16,9.24 L5.72,9.24 C5.72,8.514 5.126,7.92 4.4,7.92 C3.674,7.92 3.08,8.514 3.08,9.24 L3.08,16.28 C3.08,17.006 3.674,17.6 4.4,17.6 C5.126,17.6 5.72,17.006 5.72,16.28 L6.16,16.28 L7.7132,16.28 C8.6372,17.402 9.9836,18.04 11.44,18.04 L13.2,18.04 C14.6564,18.04 16.0028,17.402 16.9268,16.28 L18.48,16.28 L18.92,16.28 C18.92,17.006 19.514,17.6 20.24,17.6 C20.966,17.6 21.56,17.006 21.56,16.28 L21.56,9.24 C21.56,8.514 20.966,7.92 20.24,7.92 Z" id="Path"></path>
                </g>
            </g>
        </g>
    </g>
</svg>