<?xml version="1.0" encoding="UTF-8"?>
<svg width="19px" height="27px" viewBox="0 0 19 27" version="1.1" xmlns="http://www.w3.org/2000/svg" xmlns:xlink="http://www.w3.org/1999/xlink">
    <!-- Generator: Sketch 56.3 (81716) - https://sketch.com -->
    <title>environment</title>
    <desc>Created with Sketch.</desc>
    <g id="Page-1" stroke="none" stroke-width="1" fill="none" fill-rule="evenodd">
        <g id="人员记录" transform="translate(-842.000000, -19.000000)" fill="#FFFFFF" fill-rule="nonzero">
            <g id="水压水流" transform="translate(801.000000, -63.000000)">
                <path d="M51.2539062,83.0351562 C52.0351602,83.8554729 52.8164023,84.7539014 53.5976562,85.7304688 C54.3789102,86.7070361 55.2871042,87.9570236 56.3222656,89.4804688 C57.3574271,91.0039139 58.1874969,92.6835846 58.8125,94.5195312 C59.4375031,96.3554779 59.75,98.152335 59.75,99.9101562 C59.75,102.410169 58.8320404,104.529288 56.9960938,106.267578 C55.1601471,108.005868 52.9531379,108.875 50.375,108.875 C48.7343668,108.875 47.2207101,108.513675 45.8339844,107.791016 C44.4472587,107.068356 43.3437541,106.082037 42.5234375,104.832031 C42.2109359,104.324216 41.9179701,103.757816 41.6445312,103.132812 C41.2148416,102.07812 41,101.003912 41,99.9101562 L41,99.6757812 C41.0390627,96.3945148 42.2890502,92.8203318 44.75,88.953125 C45.5312539,87.7421814 46.6835861,86.2382902 48.2070312,84.4414062 C48.9101598,83.6601523 49.339843,83.191407 49.4960938,83.0351562 L49.5546875,82.9765625 C49.8671891,82.7421863 50.1406238,82.625 50.375,82.625 C50.6093762,82.625 50.8828109,82.7421863 51.1953125,82.9765625 L51.2539062,83.0351562 Z M50.375,105.59375 C51.9765705,105.59375 53.3535099,105.017584 54.5058594,103.865234 C55.6582089,102.712885 56.234375,101.335946 56.234375,99.734375 C56.234375,98.9140584 56.0781266,98.1328162 55.765625,97.390625 C55.25781,99.3046971 54.2812572,100.955071 52.8359375,102.341797 C51.3906178,103.728523 49.7109471,104.617186 47.796875,105.007812 C48.6562543,105.398439 49.5156207,105.59375 50.375,105.59375 Z" id="environment"></path>
            </g>
        </g>
    </g>
</svg>